# xmcd
#
# Track frame offsets:
#	150
#	30195
#	65157
#	84432
#	119117
#	150227
#	166900
#	191585
#	225137
#	254385
#	279085
#
# Disc length: 4042 seconds
#
# Revision: 2
# Processed by: cddbd v1.5.2PL0 Copyright (c) Steve Scherf et al.
# Submitted via: audiograbber 1.83.01
#
DISCID=7e0fc80b
DTITLE=Fat Larry's Band - The Best Of Fat Larry's Band
DYEAR=1994
DGENRE=Pop
TTITLE0=Center City
TTITLE1=Fascination
TTITLE2=We Just Can't Get It Together
TTITLE3=Boogie Town
TTITLE4=Lookin' For Love Tonight
TTITLE5=Close Encounters Of A Funky Kind
TTITLE6=Last Chance To Dance
TTITLE7=Hey Pancho It's Disco
TTITLE8=Act  Like You Know
TTITLE9=Lookin' For Love
TTITLE10=Zoom
EXTD=
EXTT0=Fat Larry's Band
EXTT1=Fat Larry's Band
EXTT2=Fat Larry's Band
EXTT3=Fat Larry's Band
EXTT4=Fat Larry's Band
EXTT5=Fat Larry's Band
EXTT6=Fat Larry's Band
EXTT7=Fat Larry's Band
EXTT8=Fat Larry's Band
EXTT9=Fat Larry's Band
EXTT10=Fat Larry's Band
PLAYORDER=
